<svg xmlns="http://www.w3.org/2000/svg" fill="none" viewBox="0 0 1769 1181" height="500" width="500">
  <path fill="white" d="M521.5 972C496.963 972 477 952.037 477 927.5V237.5C477 212.963 496.963 193 521.5 193H1551.5C1576.04 193 1596 212.963 1596 237.5V927.5C1596 952.037 1576.04 972 1551.5 972H521.5Z"></path>
  <path fill="black"
    d="M1551.5 200C1572.18 200 1589 216.822 1589 237.5V927.5C1589 948.178 1572.18 965 1551.5 965H521.5C500.822 965 484 948.178 484 927.5V237.5C484 216.822 500.822 200 521.5 200H1551.5ZM1551.5 186H521.5C493.175 186 470 209.175 470 237.5V927.5C470 955.825 493.175 979 521.5 979H1551.5C1579.82 979 1603 955.825 1603 927.5V237.5C1603 209.175 1579.82 186 1551.5 186Z">
  </path>
  <path fill="#FF3F08" d="M1054 290C1066 290 1195 447 1223.76 509.749C1226.79 516.374 1217.16 523 1209.1 523H898.898C890.837 523 881.531 516.514 884.243 509.749C909 448 1039 290 1054 290Z"></path>
  <path fill="white" d="M1053 353H1054C1060.6 353 1066 358.4 1066 365V431C1066 437.6 1060.6 443 1054 443H1053C1046.4 443 1041 437.6 1041 431V365C1041 358.4 1046.4 353 1053 353Z"></path>
  <path fill="white" d="M1053 485C1060.73 485 1067 478.732 1067 471C1067 463.268 1060.73 457 1053 457C1045.27 457 1039 463.268 1039 471C1039 478.732 1045.27 485 1053 485Z"></path>
  <path stroke-linejoin="round" stroke-linecap="round" stroke-miterlimit="10" stroke-width="14" stroke="#FF3F08" d="M809 641L756 599"></path>
  <path stroke-linejoin="round" stroke-linecap="round" stroke-miterlimit="10" stroke-width="14" stroke="#FF3F08" d="M813 588L748 642"></path>
  <path stroke-linejoin="round" stroke-linecap="round" stroke-miterlimit="10" stroke-width="14" stroke="#FF3F08" d="M915 582H1298C1304.6 582 1310 587.4 1310 594V637C1310 643.6 1304.6 649 1298 649H915C908.4 649 903 643.6 903 637V594C903 587.4 908.4 582 915 582Z"></path>
  <path fill="#FF3F08"
    d="M971.757 587.756C967.247 592.271 962.491 596.623 958.432 601.552C954.385 606.468 949.646 610.228 944.963 614.499C940.047 618.983 934.787 623.046 929.71 627.34C927.479 629.226 925.256 631.098 922.996 632.947C920.893 634.667 919.658 636.905 917.757 638.756C912.213 644.152 920.703 652.633 926.242 647.241C928.158 645.376 929.395 643.146 931.481 641.432C933.504 639.769 935.512 638.113 937.503 636.409C942.786 631.89 948.309 627.672 953.449 622.984C957.885 618.938 962.579 615.393 966.385 610.703C970.595 605.515 975.524 600.964 980.242 596.241C985.707 590.771 977.225 582.283 971.757 587.756Z">
  </path>
  <path fill="#FF3F08"
    d="M923.214 639.404C923.422 638.995 923.629 638.587 923.837 638.178C918.716 643.029 925.215 650.612 931.108 647.601C935.262 645.479 938.861 642.229 942.892 639.83C947.214 637.257 951.7 634.97 956.041 632.428C965.045 627.157 973.883 621.705 983.242 617.07C992.231 612.617 1001.32 608.432 1010.78 605.086C1015.43 603.441 1019.93 601.388 1024.6 599.787C1028.73 598.371 1033.06 597.911 1036.79 595.506C1034.37 592.365 1031.95 589.225 1029.52 586.084C1019.72 594.749 1010.99 604.073 1002.13 613.661C998.059 618.065 993.799 622.434 989.389 626.499C985.386 630.188 981.692 633.048 979.691 638.296C978.625 641.094 980.891 645.206 983.882 645.678C991.336 646.854 997.126 641.818 1003.21 638.091C1006.49 636.077 1009.39 633.51 1012.84 631.743C1015.86 630.19 1018.88 629.038 1021.72 627.099C1028 622.804 1034.69 619.483 1041.4 615.936C1044.92 614.078 1048.27 612.234 1052.08 611.038C1054.51 610.278 1058.31 607.927 1060.69 608.131C1058.96 605.122 1057.24 602.113 1055.51 599.104C1053.29 602.294 1049.79 605.45 1047.07 608.265C1043.72 611.722 1039.79 614.418 1036.59 618.076C1033.84 621.207 1031.57 624.728 1028.91 627.886C1026.3 630.984 1023.75 633.589 1023.58 637.87C1023.48 640.255 1025.49 643.25 1027.98 643.655C1035.16 644.821 1041.06 639.737 1046.77 636.035C1053.23 631.848 1060.34 628.96 1066.73 624.618C1072.62 620.614 1078.77 615.624 1085.53 613.241C1089.34 611.899 1093.16 610.946 1096.9 609.355C1098.57 608.64 1100.22 607.885 1101.87 607.105C1103.26 606.443 1105.66 604.6 1107.3 604.887C1105.91 603.49 1104.51 602.092 1103.11 600.695C1104.16 606.114 1098.76 612.864 1096.76 617.665C1094.36 623.421 1090.68 629.792 1090.03 636.019C1089.62 639.934 1094.19 642.802 1097.62 641.805C1102.58 640.366 1106.35 635.495 1110.15 632.174C1115.21 627.744 1118.71 621.93 1123.81 617.55C1129.28 612.857 1135.56 610.377 1142.37 608.104C1145.63 607.013 1148.95 606.106 1152.3 605.313C1154.55 604.782 1160.11 602.664 1162.05 602.943C1160.65 600.483 1159.25 598.024 1157.86 595.563C1154.53 603.847 1147.24 610.658 1141.04 616.847C1138.12 619.769 1135.53 622.87 1133.61 626.548C1131.72 630.177 1129.09 633.26 1127.52 637.027C1126.79 638.761 1127.58 641.71 1129.06 642.866C1131.6 644.848 1133.36 645.411 1136.59 644.786C1144.17 643.321 1140.96 631.752 1133.4 633.214C1133.08 633.277 1132.76 633.339 1132.43 633.402C1134.38 633.917 1136.32 634.431 1138.27 634.945C1138.03 634.757 1137.79 634.569 1137.54 634.38C1138.06 636.326 1138.57 638.272 1139.09 640.217C1139.71 638.729 1141.32 637.467 1142.18 636.078C1143.27 634.307 1143.99 632.319 1145.08 630.549C1147.39 626.829 1151 624.073 1153.97 620.919C1160.19 614.321 1166.03 607.216 1169.43 598.753C1170.53 595.999 1168.2 591.798 1165.24 591.373C1158.11 590.349 1149.55 593.392 1142.7 595.42C1135.85 597.45 1127.97 599.874 1121.94 603.772C1116.2 607.477 1111.7 612.517 1107.39 617.719C1105.28 620.269 1103 622.56 1100.47 624.698C1099.15 625.811 1095.95 629.789 1094.43 630.231C1096.96 632.16 1099.49 634.089 1102.03 636.018C1102.31 633.286 1104.76 629.863 1105.79 627.243C1107.15 623.788 1108.51 620.423 1110.19 617.109C1113.41 610.761 1116.08 604.754 1114.68 597.503C1114.33 595.642 1112.38 593.642 1110.49 593.314C1102.34 591.895 1096.33 597.105 1088.92 599.667C1085.18 600.963 1081.33 601.794 1077.72 603.494C1074.49 605.013 1071.57 607.056 1068.59 609.002C1061.89 613.388 1055.43 617.851 1048.24 621.399C1044.61 623.189 1041.31 625.322 1037.92 627.523C1036.51 628.437 1035.09 629.287 1033.65 630.145C1032.79 630.655 1029.51 631.813 1031.17 632.083C1032.64 634.011 1034.11 635.94 1035.58 637.869C1035.54 638.837 1037.43 636.353 1037.78 635.955C1038.88 634.682 1039.82 633.345 1040.81 631.982C1043.47 628.308 1046.38 624.766 1049.74 621.698C1055.35 616.559 1061.47 611.465 1065.87 605.16C1068.7 601.1 1064.81 596.485 1060.69 596.131C1057.45 595.853 1055.01 597.408 1052.09 598.493C1048.98 599.649 1045.76 600.38 1042.72 601.763C1035.81 604.897 1028.9 608.622 1022.36 612.448C1019.41 614.171 1016.7 616.196 1013.8 617.981C1010.89 619.775 1007.62 620.785 1004.7 622.569C1001.58 624.472 998.778 626.778 995.607 628.611C994.068 629.501 992.476 630.304 990.977 631.261C990.597 631.504 987.425 634.162 987.07 634.106C988.467 636.566 989.864 639.025 991.261 641.486C992.66 637.815 998.487 634.394 1001.25 631.638C1005.23 627.675 1009.26 623.761 1012.96 619.528C1020.75 610.606 1029.13 602.411 1038.01 594.568C1043.09 590.071 1036.46 581.458 1030.74 585.145C1027.35 587.325 1022.74 587.677 1018.97 589.119C1014.32 590.897 1009.7 592.716 1005.02 594.425C995.491 597.908 986.272 602.208 977.183 606.709C968.1 611.208 959.5 616.462 950.774 621.6C946.415 624.167 941.918 626.483 937.555 629.038C933.273 631.546 929.438 634.996 925.049 637.238C927.473 640.379 929.896 643.522 932.32 646.663C933.588 645.461 934.211 644.226 934.783 642.595C937.345 635.292 925.756 632.151 923.214 639.404Z">
  </path>
  <path fill="#FF3F08"
    d="M1205.76 583.756C1196.16 593.419 1187.16 603.72 1176.6 612.382C1165.98 621.099 1154.97 629.58 1143.97 637.818C1137.86 642.393 1143.84 652.815 1150.03 648.179C1161.36 639.691 1172.59 630.914 1183.63 622.05C1194.78 613.098 1204.19 602.356 1214.24 592.241C1219.69 586.757 1211.21 578.268 1205.76 583.756Z">
  </path>
  <path stroke-linejoin="round" stroke-linecap="round" stroke-miterlimit="10" stroke-width="14" stroke="#FF3F08" d="M809 777L756 735"></path>
  <path stroke-linejoin="round" stroke-linecap="round" stroke-miterlimit="10" stroke-width="14" stroke="#FF3F08" d="M813 724L748 778"></path>
  <path stroke-linejoin="round" stroke-linecap="round" stroke-miterlimit="10" stroke-width="14" stroke="#FF3F08" d="M915 718H1298C1304.6 718 1310 723.4 1310 730V773C1310 779.6 1304.6 785 1298 785H915C908.4 785 903 779.6 903 773V730C903 723.4 908.4 718 915 718Z"></path>
  <path fill="#FF3F08"
    d="M971.757 723.756C967.247 728.271 962.491 732.623 958.432 737.552C954.385 742.468 949.646 746.228 944.963 750.499C940.047 754.983 934.787 759.046 929.71 763.34C927.479 765.226 925.256 767.098 922.996 768.947C920.893 770.667 919.658 772.905 917.757 774.756C912.213 780.152 920.703 788.633 926.242 783.241C928.158 781.376 929.395 779.146 931.481 777.432C933.504 775.769 935.512 774.113 937.503 772.409C942.786 767.89 948.309 763.672 953.449 758.984C957.885 754.938 962.579 751.393 966.385 746.703C970.595 741.515 975.524 736.964 980.242 732.241C985.707 726.771 977.225 718.283 971.757 723.756Z">
  </path>
  <path fill="#FF3F08"
    d="M923.214 775.404C923.422 774.995 923.629 774.587 923.837 774.178C918.716 779.029 925.215 786.612 931.108 783.601C935.262 781.479 938.861 778.229 942.892 775.83C947.214 773.257 951.7 770.97 956.041 768.428C965.045 763.157 973.883 757.705 983.242 753.07C992.231 748.617 1001.32 744.432 1010.78 741.086C1015.43 739.441 1019.93 737.388 1024.6 735.787C1028.73 734.371 1033.06 733.911 1036.79 731.506C1034.37 728.365 1031.95 725.225 1029.52 722.084C1019.72 730.749 1010.99 740.073 1002.13 749.661C998.059 754.065 993.799 758.434 989.389 762.499C985.386 766.188 981.692 769.048 979.691 774.296C978.625 777.094 980.891 781.206 983.882 781.678C991.336 782.854 997.126 777.818 1003.21 774.091C1006.49 772.077 1009.39 769.51 1012.84 767.743C1015.86 766.19 1018.88 765.038 1021.72 763.099C1028 758.804 1034.69 755.483 1041.4 751.936C1044.92 750.078 1048.27 748.234 1052.08 747.038C1054.51 746.278 1058.31 743.927 1060.69 744.131C1058.96 741.122 1057.24 738.113 1055.51 735.104C1053.29 738.294 1049.79 741.45 1047.07 744.265C1043.72 747.722 1039.79 750.418 1036.59 754.076C1033.84 757.207 1031.57 760.728 1028.91 763.886C1026.3 766.984 1023.75 769.589 1023.58 773.87C1023.48 776.255 1025.49 779.25 1027.98 779.655C1035.16 780.821 1041.06 775.737 1046.77 772.035C1053.23 767.848 1060.34 764.96 1066.73 760.618C1072.62 756.614 1078.77 751.624 1085.53 749.241C1089.34 747.899 1093.16 746.946 1096.9 745.355C1098.57 744.64 1100.22 743.885 1101.87 743.105C1103.26 742.443 1105.66 740.6 1107.3 740.887C1105.91 739.49 1104.51 738.092 1103.11 736.695C1104.16 742.114 1098.76 748.864 1096.76 753.665C1094.36 759.421 1090.68 765.792 1090.03 772.019C1089.62 775.934 1094.19 778.802 1097.62 777.805C1102.58 776.366 1106.35 771.495 1110.15 768.174C1115.21 763.744 1118.71 757.93 1123.81 753.55C1129.28 748.857 1135.56 746.377 1142.37 744.104C1145.63 743.013 1148.95 742.106 1152.3 741.313C1154.55 740.782 1160.11 738.664 1162.05 738.943C1160.65 736.483 1159.25 734.024 1157.86 731.563C1154.53 739.847 1147.24 746.658 1141.04 752.847C1138.12 755.769 1135.53 758.87 1133.61 762.548C1131.72 766.177 1129.09 769.26 1127.52 773.027C1126.79 774.761 1127.58 777.71 1129.06 778.866C1131.6 780.848 1133.36 781.411 1136.59 780.786C1144.17 779.321 1140.96 767.752 1133.4 769.214C1133.08 769.277 1132.76 769.339 1132.43 769.402C1134.38 769.917 1136.32 770.431 1138.27 770.945C1138.03 770.757 1137.79 770.569 1137.54 770.38C1138.06 772.326 1138.57 774.272 1139.09 776.217C1139.71 774.729 1141.32 773.467 1142.18 772.078C1143.27 770.307 1143.99 768.319 1145.08 766.549C1147.39 762.829 1151 760.073 1153.97 756.919C1160.19 750.321 1166.03 743.216 1169.43 734.753C1170.53 731.999 1168.2 727.798 1165.24 727.373C1158.11 726.349 1149.55 729.392 1142.7 731.42C1135.85 733.45 1127.97 735.874 1121.94 739.772C1116.2 743.477 1111.7 748.517 1107.39 753.719C1105.28 756.269 1103 758.56 1100.47 760.698C1099.15 761.811 1095.95 765.789 1094.43 766.231C1096.96 768.16 1099.49 770.089 1102.03 772.018C1102.31 769.286 1104.76 765.863 1105.79 763.243C1107.15 759.788 1108.51 756.423 1110.19 753.109C1113.41 746.761 1116.08 740.754 1114.68 733.503C1114.33 731.642 1112.38 729.642 1110.49 729.314C1102.34 727.895 1096.33 733.105 1088.92 735.667C1085.18 736.963 1081.33 737.794 1077.72 739.494C1074.49 741.013 1071.57 743.056 1068.59 745.002C1061.89 749.388 1055.43 753.851 1048.24 757.399C1044.61 759.189 1041.31 761.322 1037.92 763.523C1036.51 764.437 1035.09 765.287 1033.65 766.145C1032.79 766.655 1029.51 767.813 1031.17 768.083C1032.64 770.011 1034.11 771.94 1035.58 773.869C1035.54 774.837 1037.43 772.353 1037.78 771.955C1038.88 770.682 1039.82 769.345 1040.81 767.982C1043.47 764.308 1046.38 760.766 1049.74 757.698C1055.35 752.559 1061.47 747.465 1065.87 741.16C1068.7 737.1 1064.81 732.485 1060.69 732.131C1057.45 731.853 1055.01 733.408 1052.09 734.493C1048.98 735.649 1045.76 736.38 1042.72 737.763C1035.81 740.897 1028.9 744.622 1022.36 748.448C1019.41 750.171 1016.7 752.196 1013.8 753.981C1010.89 755.775 1007.62 756.785 1004.7 758.569C1001.58 760.472 998.778 762.778 995.607 764.611C994.068 765.501 992.476 766.304 990.977 767.261C990.597 767.504 987.425 770.162 987.07 770.106C988.467 772.566 989.864 775.025 991.261 777.486C992.66 773.815 998.487 770.394 1001.25 767.638C1005.23 763.675 1009.26 759.761 1012.96 755.528C1020.75 746.606 1029.13 738.411 1038.01 730.568C1043.09 726.071 1036.46 717.458 1030.74 721.145C1027.35 723.325 1022.74 723.677 1018.97 725.119C1014.32 726.897 1009.7 728.716 1005.02 730.425C995.491 733.908 986.272 738.208 977.183 742.709C968.1 747.208 959.5 752.462 950.774 757.6C946.415 760.167 941.918 762.483 937.555 765.038C933.273 767.546 929.438 770.996 925.049 773.238C927.473 776.379 929.896 779.522 932.32 782.663C933.588 781.461 934.211 780.226 934.783 778.595C937.345 771.292 925.756 768.151 923.214 775.404Z">
  </path>
  <path fill="#FF3F08"
    d="M1205.76 719.756C1196.16 729.419 1187.16 739.72 1176.6 748.382C1165.98 757.099 1154.97 765.58 1143.97 773.818C1137.86 778.393 1143.84 788.815 1150.03 784.179C1161.36 775.691 1172.59 766.914 1183.63 758.05C1194.78 749.098 1204.19 738.356 1214.24 728.241C1219.69 722.757 1211.21 714.268 1205.76 719.756Z">
  </path>
  <path fill="#FF3F08"
    d="M1211.21 723.404C1209.08 733.739 1204.22 743.504 1200.3 753.245C1196.65 762.318 1193.83 771.716 1188.09 779.766C1184.15 785.308 1192.99 792.079 1197.52 787.037C1201.83 782.238 1205.23 777.257 1210.06 772.937C1214.76 768.743 1217.79 763.19 1221.1 757.926C1224.58 752.37 1229.27 748.536 1234.89 745.212C1237.48 743.68 1239.95 742.27 1242.21 740.25C1243.64 738.97 1246.54 734.493 1248.37 733.939C1246.11 731.001 1243.85 728.063 1241.59 725.125C1238.12 732.522 1234.49 739.786 1231.5 747.395C1229.42 752.672 1224.57 759.839 1225.3 765.741C1225.74 769.253 1228.83 773.009 1232.89 771.527C1241.02 768.564 1245.21 761.925 1249.96 755.137C1251.81 752.491 1253.77 749.934 1255.63 747.287C1257.36 744.801 1259.56 740.965 1262.71 740.221C1260.77 739.706 1258.82 739.193 1256.87 738.679C1255.78 737.413 1256.54 739.07 1256.3 740.036C1256.01 741.191 1255.85 742.383 1255.57 743.541C1255.04 745.64 1254.35 747.683 1253.7 749.743C1252.02 755.039 1249.25 762.568 1252.17 767.77C1253.34 769.853 1256.56 771.502 1258.95 770.527C1267.05 767.22 1272.25 759.055 1277.57 752.398C1280.36 748.916 1282.34 745.355 1284.25 741.345C1284.96 739.838 1285.7 738.364 1286.59 736.953C1286.9 736.458 1287.34 735.979 1287.59 735.456C1288.14 734.341 1289.18 734.723 1287.44 735.012C1284.98 733.615 1282.52 732.219 1280.06 730.823C1281.16 736.219 1278.88 742.96 1278.01 748.315C1277.58 751.016 1277 753.688 1276.6 756.396C1275.75 762.186 1274.66 771.896 1282.29 773.667C1286.11 774.553 1289.08 772.454 1291.49 769.747C1292.8 768.278 1293.8 766.745 1294.51 764.892C1295.46 762.405 1296.63 760.645 1297.96 758.33C1300.56 753.8 1301.65 747.736 1305.5 743.997C1308.19 741.374 1312.14 739.766 1312.79 735.595C1313.95 728.04 1302.39 724.783 1301.21 732.404C1301.38 731.349 1300.11 733.071 1299.26 733.737C1297.9 734.798 1296.81 735.662 1295.7 736.985C1293.03 740.186 1291.2 744.173 1289.55 747.97C1288.07 751.355 1285.88 754.206 1284.37 757.525C1283.83 758.706 1283.27 760.227 1283 761.262C1282.59 761.725 1282.16 762.179 1281.72 762.621C1286.64 766.103 1288.7 766.518 1287.9 763.866C1288.39 762.575 1288.12 759.909 1288.38 758.223C1288.61 756.678 1288.95 755.153 1289.23 753.616C1290.73 745.353 1293.33 735.981 1291.63 727.632C1290.94 724.226 1287.27 722.942 1284.25 723.442C1278.13 724.457 1274.85 733.459 1272.52 738.231C1270.52 742.345 1267.66 745.63 1264.71 749.085C1262.23 751.986 1259.47 757.44 1255.76 758.957C1258.02 759.876 1260.27 760.795 1262.53 761.714C1262.61 763.065 1262.76 763.204 1262.98 762.13C1263.19 761.464 1263.38 760.794 1263.54 760.116C1264.11 757.824 1264.47 755.525 1265.16 753.257C1265.83 751.081 1266.59 748.944 1267.14 746.732C1268.54 741.107 1269.44 734.903 1265.36 730.194C1263.95 728.567 1261.51 728.181 1259.52 728.651C1251.99 730.434 1247.72 737.817 1243.57 743.695C1240.05 748.678 1235.72 757.764 1229.71 759.958C1232.24 761.887 1234.77 763.815 1237.3 765.744C1237.05 763.69 1238.53 761.44 1239.33 759.579C1240.6 756.593 1241.88 753.609 1243.07 750.588C1245.68 743.954 1248.93 737.634 1251.96 731.185C1254.05 726.721 1250.56 720.743 1245.18 722.371C1238.94 724.261 1235.68 730.849 1230.16 734.087C1224.3 737.519 1218.53 741.434 1214.26 746.793C1210.21 751.875 1207.74 758.129 1203.25 762.857C1200.77 765.462 1197.86 767.388 1195.57 770.196C1193.33 772.94 1191.4 775.918 1189.03 778.555C1192.17 780.979 1195.31 783.403 1198.46 785.826C1204.42 777.448 1207.48 767.567 1211.21 758.095C1215.29 747.782 1220.54 737.514 1222.79 726.598C1224.34 719.057 1212.77 715.833 1211.21 723.404Z">
  </path>
  <path fill="#315BF4"
    d="M11.639 462.15C51.601 462.267 92.937 468.308 128.45 484.67C164.922 501.474 193.268 527.176 211.182 563.077C221.182 583.119 227.235 606.327 230.964 629.112C234.301 649.501 234.988 671.702 232.767 692.887C232.631 694.184 232.481 695.479 232.326 696.775C231.829 700.925 232.499 695.662 232.162 698.072C231.838 700.393 231.469 702.709 231.069 705.018C230.215 709.952 229.199 714.857 228.025 719.724C225.856 728.715 223.145 737.573 219.933 746.245C216.848 754.576 214.335 760.349 209.818 769.316C205.899 777.095 201.599 784.681 196.985 792.068C192.64 799.025 188.016 805.806 183.171 812.425C182.042 813.967 180.902 815.499 179.75 817.024C179.231 817.712 178.707 818.397 178.185 819.083C176.11 821.811 179.664 817.227 177.547 819.902C175.042 823.068 172.528 826.224 169.956 829.336C160.67 840.565 150.86 851.34 140.941 862.01C125.583 878.531 107.792 895.27 98.253 916.062C90.704 932.515 89.8061 951.967 104.684 964.718C119.709 977.594 141.156 980.554 160.177 981.991C185.79 983.926 211.697 982.036 237.168 979.19C267.697 975.778 298.04 970.697 328.119 964.485C355.966 958.734 383.64 952.041 410.967 944.175C432.248 938.05 453.442 931.31 473.772 922.474C502.858 909.831 536.34 882.734 527.677 846.898C523.888 831.224 511.455 819.501 496.656 814.055C479.35 807.686 460.338 811.136 443.976 818.495C407.488 834.908 381.2 872.809 369.957 910.213C359.399 945.335 361.455 988.45 390.099 1014.75C405.914 1029.28 426.808 1036.5 447.647 1040.07C472.094 1044.26 496.947 1044.7 521.678 1045.36C544.034 1045.97 567.162 1045.61 588.179 1051.66C591.111 1052.5 586.223 1050.44 588.693 1051.83C589.172 1052.1 589.688 1052.32 590.171 1052.58C590.839 1052.95 591.463 1053.44 592.136 1053.79C594.43 1054.98 589.724 1052.53 591.887 1053.65C592.424 1053.93 592.773 1054.67 593.216 1055.06C591.133 1053.22 592.027 1053.53 592.737 1054.65C592.947 1054.99 593.066 1055.4 593.287 1055.72C591.438 1053.06 592.792 1054.22 593.064 1055.7C593.266 1056.8 593.161 1058.46 593.07 1054.97C593.087 1055.61 593.21 1056.26 593.217 1056.91C593.229 1058.06 593.236 1059.2 593.175 1060.35C593.095 1061.84 592.903 1063.31 592.754 1064.79C593.151 1060.85 592.507 1066.33 592.366 1067.23C589.532 1085.44 587.95 1103.29 594.008 1121.13C599.007 1135.84 610.558 1145.73 623.661 1153.43C657.776 1173.47 701.244 1182 740.473 1180.15C760.947 1179.19 781.144 1175.07 799.557 1165.86C805.353 1162.97 806.981 1154.78 803.862 1149.44C800.41 1143.54 793.261 1142.23 787.444 1145.14C782.819 1147.45 781.622 1147.95 776.715 1149.61C771.912 1151.23 767.001 1152.53 762.038 1153.55C756.915 1154.61 753.868 1155.06 749.754 1155.47C744.665 1155.98 739.554 1156.26 734.441 1156.34C713.726 1156.64 696.004 1154.19 676.076 1148.82C667.38 1146.48 658.77 1143.66 650.469 1140.15C652.691 1141.09 649.26 1139.6 649.129 1139.54C648.108 1139.09 647.093 1138.62 646.082 1138.14C644.447 1137.36 642.826 1136.56 641.222 1135.72C637.644 1133.85 634.141 1131.83 630.782 1129.59C629.495 1128.73 628.251 1127.82 626.994 1126.92C629.525 1128.73 625.39 1125.57 624.729 1124.98C623.734 1124.09 622.766 1123.16 621.841 1122.2C620.928 1121.25 618.506 1117.86 620.367 1120.69C619.623 1119.56 618.89 1118.44 618.178 1117.29C617.916 1116.86 617.777 1116.25 617.463 1115.87C616.682 1114.92 618.769 1119.82 617.597 1116.02C616.097 1111.17 614.599 1106.4 613.924 1101.34C614.263 1103.88 613.852 1100.15 613.835 1099.94C613.774 1099.19 613.724 1098.45 613.684 1097.7C613.569 1095.54 613.546 1093.38 613.6 1091.22C613.643 1089.5 613.737 1087.79 613.871 1086.08C613.949 1085.09 614.042 1084.1 614.145 1083.11C614.209 1082.5 614.76 1078.22 614.3 1081.55C615.244 1074.73 616.659 1067.94 617.129 1061.06C618.223 1045.05 609.356 1033.75 594.56 1028.51C584.326 1024.89 572.999 1024.15 562.261 1023.25C550.638 1022.29 538.978 1021.86 527.323 1021.52C504.029 1020.84 479.227 1020.9 456.923 1017.4C446.756 1015.81 436.66 1013.49 427.032 1009.81C420.177 1007.19 411.159 1001.68 406.269 997.035C404.958 995.79 403.698 994.49 402.495 993.139C401.781 992.337 401.089 991.516 400.414 990.681C401.825 992.427 400.356 990.6 400.035 990.132C397.723 986.766 395.622 983.306 393.882 979.607C393.747 979.32 392.427 976.085 393.397 978.568C393.008 977.572 392.626 976.575 392.272 975.566C391.679 973.875 391.147 972.162 390.673 970.433C390.146 968.511 389.693 966.569 389.305 964.614C389.128 963.718 388.989 962.815 388.814 961.918C388.602 960.497 388.585 960.468 388.762 961.832C388.668 961.097 388.583 960.362 388.506 959.625C384.966 925.549 399.419 889.942 422.004 864.96C425.03 861.612 428.221 858.413 431.574 855.393C435.746 851.636 437.609 850.179 441.529 847.494C445.259 844.939 449.142 842.602 453.193 840.591C457.073 838.664 459.489 837.717 464.509 836.378C466.654 835.806 468.819 835.372 471.005 834.995C468.427 835.44 473.263 834.809 474.062 834.77C475.887 834.68 477.715 834.68 479.539 834.778C480.342 834.821 481.142 834.915 481.944 834.961C483.332 835.12 483.205 835.099 481.563 834.899C482.174 834.997 482.782 835.108 483.388 835.23C484.858 835.584 486.326 835.894 487.773 836.34C488.614 836.599 489.434 836.945 490.276 837.195C493.01 838.005 488.149 835.93 490.589 837.335C491.806 838.036 493.091 838.601 494.294 839.337C494.996 839.767 495.658 840.285 496.366 840.7C498.524 841.964 494.896 839.187 496.515 840.815C497.643 841.949 498.85 842.997 499.964 844.152C502.258 846.53 499.239 842.676 501.005 845.444C501.848 846.765 502.526 848.186 503.356 849.505C504.4 851.166 503.23 849.148 503.098 848.784C503.455 849.771 503.83 850.742 504.126 851.75C504.5 853.025 504.712 854.32 505.009 855.609C504.186 852.036 505.035 856.901 505.03 858.066C505.026 858.879 504.495 863.432 505.076 859.895C504.741 861.93 504.306 863.929 503.685 865.897C503.502 866.476 503.255 867.05 503.093 867.631C502.293 870.501 504.294 865.564 502.852 868.253C502.071 869.711 501.376 871.203 500.525 872.628C499.992 873.518 499.431 874.394 498.847 875.252C498.714 875.448 496.615 878.259 498.148 876.309C496.722 878.123 495.16 879.841 493.541 881.483C486.52 888.603 478.597 893.601 469.05 898.333C467.594 899.054 466.125 899.746 464.646 900.419C463.81 900.799 462.971 901.174 462.13 901.542C461.654 901.75 461.172 901.949 460.698 902.162C458.728 903.046 463.63 900.965 461.592 901.787C457.379 903.486 453.169 905.175 448.906 906.746C438.798 910.471 428.553 913.821 418.254 916.975C392.698 924.801 366.771 931.433 340.691 937.265C311.884 943.706 282.842 949.106 253.602 953.166C252.972 953.253 252.342 953.337 251.713 953.422C254.878 952.995 251.673 953.426 251.135 953.494C249.573 953.694 248.012 953.896 246.449 954.09C242.744 954.55 239.035 954.986 235.324 955.391C228.425 956.144 221.515 956.797 214.596 957.324C202.151 958.271 189.664 958.832 177.181 958.691C171.743 958.629 166.304 958.434 160.879 958.041C158.356 957.858 155.835 957.633 153.32 957.357C152.302 957.245 147.57 956.561 151.923 957.22C150.661 957.029 149.396 956.857 148.136 956.652C143.692 955.926 139.273 955.001 134.948 953.741C133.254 953.247 131.573 952.704 129.917 952.095C129.442 951.92 128.972 951.726 128.496 951.555C126.758 950.929 127.837 952.004 129.532 952.009C128.848 952.007 127.527 951.102 126.929 950.805C125.449 950.068 124.001 949.261 122.614 948.36C122.021 947.975 121.463 947.502 120.854 947.148C119.241 946.211 123.26 949.327 121.968 948.006C121.595 947.625 121.133 947.307 120.738 946.946C120.419 946.655 117.672 943.932 117.802 943.812C118.019 943.612 119.901 947.138 118.361 944.391C118 943.746 117.641 943.068 117.25 942.441C115.673 939.91 117.915 945.181 117.43 942.904C117.301 942.299 117.032 941.703 116.875 941.102C116.707 940.458 116.695 939.639 116.442 939.035C117.341 941.185 116.673 941.731 116.583 939.263C116.558 938.574 116.563 937.882 116.591 937.193C116.609 936.769 116.67 936.34 116.674 935.916C116.694 933.646 117.26 937.269 116.448 937.358C116.544 937.348 117.433 932.736 117.559 932.299C117.844 931.315 118.166 930.341 118.515 929.379C118.929 928.238 120.422 925.743 118.514 929.211C119.663 927.122 120.542 924.878 121.709 922.787C124.385 917.992 127.531 913.489 130.849 909.12C129.088 911.439 131.053 908.892 131.774 908.003C132.454 907.164 133.142 906.333 133.836 905.506C135.602 903.399 137.408 901.326 139.233 899.27C143.122 894.889 147.104 890.591 151.092 886.301C170.998 864.893 190.7 843.341 207.582 819.404C227.681 790.904 243.432 758.948 251.452 724.9C261.643 681.636 259.254 636.572 247.864 593.789C237 552.985 215.33 515.763 181.908 489.42C150.377 464.567 112.235 449.922 72.8421 443.272C52.6141 439.856 32.1431 438.21 11.6341 438.15C-3.80593 438.105 -3.82805 462.105 11.639 462.15Z">
  </path>
  <path fill="#D2E9FE" d="M275 0H691C697.6 0 703 5.4 703 12V92C703 98.6 697.6 104 691 104H275C268.4 104 263 98.6 263 92V12C263 5.4 268.4 0 275 0Z"></path>
  <path fill="#FF3F08" d="M313.143 66.1436C320.954 66.1436 327.286 59.8115 327.286 52.0005C327.286 44.1895 320.954 37.8574 313.143 37.8574C305.332 37.8574 299 44.1895 299 52.0005C299 59.8115 305.332 66.1436 313.143 66.1436Z"></path>
  <path fill="#315BF4" d="M351.916 66.1436C359.727 66.1436 366.059 59.8115 366.059 52.0005C366.059 44.1895 359.727 37.8574 351.916 37.8574C344.105 37.8574 337.773 44.1895 337.773 52.0005C337.773 59.8115 344.105 66.1436 351.916 66.1436Z"></path>
  <path fill="#315BF4" d="M388.857 66.1436C396.668 66.1436 403 59.8115 403 52.0005C403 44.1895 396.668 37.8574 388.857 37.8574C381.046 37.8574 374.714 44.1895 374.714 52.0005C374.714 59.8115 381.046 66.1436 388.857 66.1436Z"></path>
  <path fill="#315BF4" d="M482 41H615C621.6 41 627 46.4 627 53C627 59.6 621.6 65 615 65H482C475.4 65 470 59.6 470 53C470 46.4 475.4 41 482 41Z"></path>
  <path fill="white" d="M584 70C593.389 70 601 62.3888 601 53C601 43.6112 593.389 36 584 36C574.611 36 567 43.6112 567 53C567 62.3888 574.611 70 584 70Z"></path>
  <path fill="#315BF4" d="M648 18H673C674.1 18 675 18.9 675 20C675 21.1 674.1 22 673 22H648C646.9 22 646 21.1 646 20C646 18.9 646.9 18 648 18Z"></path>
  <path fill="#315BF4" d="M648 26H673C674.1 26 675 26.9 675 28C675 29.1 674.1 30 673 30H648C646.9 30 646 29.1 646 28C646 26.9 646.9 26 648 26Z"></path>
  <path fill="#315BF4" d="M648 34H673C674.1 34 675 34.9 675 36C675 37.1 674.1 38 673 38H648C646.9 38 646 37.1 646 36C646 34.9 646.9 34 648 34Z"></path>
  <path fill="#315BF4" d="M343 104H623C629.6 104 635 109.4 635 116V140C635 146.6 629.6 152 623 152H343C336.4 152 331 146.6 331 140V116C331 109.4 336.4 104 343 104Z"></path>
  <path fill="#D2E9FE" d="M275 152H691C697.6 152 703 157.4 703 164V244C703 250.6 697.6 256 691 256H275C268.4 256 263 250.6 263 244V164C263 157.4 268.4 152 275 152Z"></path>
  <path fill="#FF3F08" d="M313.143 218.144C320.954 218.144 327.286 211.811 327.286 204C327.286 196.19 320.954 189.857 313.143 189.857C305.332 189.857 299 196.19 299 204C299 211.811 305.332 218.144 313.143 218.144Z"></path>
  <path fill="#315BF4" d="M351.916 218.144C359.727 218.144 366.059 211.811 366.059 204C366.059 196.19 359.727 189.857 351.916 189.857C344.105 189.857 337.773 196.19 337.773 204C337.773 211.811 344.105 218.144 351.916 218.144Z"></path>
  <path fill="#315BF4" d="M388.857 218.144C396.668 218.144 403 211.811 403 204C403 196.19 396.668 189.857 388.857 189.857C381.046 189.857 374.714 196.19 374.714 204C374.714 211.811 381.046 218.144 388.857 218.144Z"></path>
  <path fill="#315BF4" d="M482 193H615C621.6 193 627 198.4 627 205C627 211.6 621.6 217 615 217H482C475.4 217 470 211.6 470 205C470 198.4 475.4 193 482 193Z"></path>
  <path fill="white" d="M584 222C593.389 222 601 214.389 601 205C601 195.611 593.389 188 584 188C574.611 188 567 195.611 567 205C567 214.389 574.611 222 584 222Z"></path>
  <path fill="#315BF4" d="M648 170H673C674.1 170 675 170.9 675 172C675 173.1 674.1 174 673 174H648C646.9 174 646 173.1 646 172C646 170.9 646.9 170 648 170Z"></path>
  <path fill="#315BF4" d="M648 178H673C674.1 178 675 178.9 675 180C675 181.1 674.1 182 673 182H648C646.9 182 646 181.1 646 180C646 178.9 646.9 178 648 178Z"></path>
  <path fill="#315BF4" d="M648 186H673C674.1 186 675 186.9 675 188C675 189.1 674.1 190 673 190H648C646.9 190 646 189.1 646 188C646 186.9 646.9 186 648 186Z"></path>
  <path fill="#315BF4" d="M343 256H623C629.6 256 635 261.4 635 268V292C635 298.6 629.6 304 623 304H343C336.4 304 331 298.6 331 292V268C331 261.4 336.4 256 343 256Z"></path>
  <path fill="#D2E9FE" d="M275 304H691C697.6 304 703 309.4 703 316V396C703 402.6 697.6 408 691 408H275C268.4 408 263 402.6 263 396V316C263 309.4 268.4 304 275 304Z"></path>
  <path fill="#FF3F08" d="M313.143 370.144C320.954 370.144 327.286 363.811 327.286 356C327.286 348.19 320.954 341.857 313.143 341.857C305.332 341.857 299 348.19 299 356C299 363.811 305.332 370.144 313.143 370.144Z"></path>
  <path fill="#315BF4" d="M351.916 370.144C359.727 370.144 366.059 363.811 366.059 356C366.059 348.19 359.727 341.857 351.916 341.857C344.105 341.857 337.773 348.19 337.773 356C337.773 363.811 344.105 370.144 351.916 370.144Z"></path>
  <path fill="#315BF4" d="M388.857 370.144C396.668 370.144 403 363.811 403 356C403 348.19 396.668 341.857 388.857 341.857C381.046 341.857 374.714 348.19 374.714 356C374.714 363.811 381.046 370.144 388.857 370.144Z"></path>
  <path fill="#315BF4" d="M482 345H615C621.6 345 627 350.4 627 357C627 363.6 621.6 369 615 369H482C475.4 369 470 363.6 470 357C470 350.4 475.4 345 482 345Z"></path>
  <path fill="white" d="M584 374C593.389 374 601 366.389 601 357C601 347.611 593.389 340 584 340C574.611 340 567 347.611 567 357C567 366.389 574.611 374 584 374Z"></path>
  <path fill="#315BF4" d="M648 322H673C674.1 322 675 322.9 675 324C675 325.1 674.1 326 673 326H648C646.9 326 646 325.1 646 324C646 322.9 646.9 322 648 322Z"></path>
  <path fill="#315BF4" d="M648 330H673C674.1 330 675 330.9 675 332C675 333.1 674.1 334 673 334H648C646.9 334 646 333.1 646 332C646 330.9 646.9 330 648 330Z"></path>
  <path fill="#315BF4" d="M648 338H673C674.1 338 675 338.9 675 340C675 341.1 674.1 342 673 342H648C646.9 342 646 341.1 646 340C646 338.9 646.9 338 648 338Z"></path>
  <path fill="#315BF4" d="M343 408H623C629.6 408 635 413.4 635 420V444C635 450.6 629.6 456 623 456H343C336.4 456 331 450.6 331 444V420C331 413.4 336.4 408 343 408Z"></path>
  <path fill="#D2E9FE" d="M275 456H691C697.6 456 703 461.4 703 468V548C703 554.6 697.6 560 691 560H275C268.4 560 263 554.6 263 548V468C263 461.4 268.4 456 275 456Z"></path>
  <path fill="#FF3F08" d="M313.143 522.144C320.954 522.144 327.286 515.811 327.286 508C327.286 500.19 320.954 493.857 313.143 493.857C305.332 493.857 299 500.19 299 508C299 515.811 305.332 522.144 313.143 522.144Z"></path>
  <path fill="#315BF4" d="M351.916 522.144C359.727 522.144 366.059 515.811 366.059 508C366.059 500.19 359.727 493.857 351.916 493.857C344.105 493.857 337.773 500.19 337.773 508C337.773 515.811 344.105 522.144 351.916 522.144Z"></path>
  <path fill="#315BF4" d="M388.857 522.144C396.668 522.144 403 515.811 403 508C403 500.19 396.668 493.857 388.857 493.857C381.046 493.857 374.714 500.19 374.714 508C374.714 515.811 381.046 522.144 388.857 522.144Z"></path>
  <path fill="#315BF4" d="M482 497H615C621.6 497 627 502.4 627 509C627 515.6 621.6 521 615 521H482C475.4 521 470 515.6 470 509C470 502.4 475.4 497 482 497Z"></path>
  <path fill="white" d="M584 526C593.389 526 601 518.389 601 509C601 499.611 593.389 492 584 492C574.611 492 567 499.611 567 509C567 518.389 574.611 526 584 526Z"></path>
  <path fill="#315BF4" d="M648 474H673C674.1 474 675 474.9 675 476C675 477.1 674.1 478 673 478H648C646.9 478 646 477.1 646 476C646 474.9 646.9 474 648 474Z"></path>
  <path fill="#315BF4" d="M648 482H673C674.1 482 675 482.9 675 484C675 485.1 674.1 486 673 486H648C646.9 486 646 485.1 646 484C646 482.9 646.9 482 648 482Z"></path>
  <path fill="#315BF4" d="M648 490H673C674.1 490 675 490.9 675 492C675 493.1 674.1 494 673 494H648C646.9 494 646 493.1 646 492C646 490.9 646.9 490 648 490Z"></path>
  <path fill="#315BF4" d="M1421 822H1757C1763.6 822 1769 827.4 1769 834V1053C1769 1059.6 1763.6 1065 1757 1065H1421C1414.4 1065 1409 1059.6 1409 1053V834C1409 827.4 1414.4 822 1421 822Z"></path>
  <path fill="white" d="M1488 880H1712C1718.6 880 1724 885.4 1724 892V896C1724 902.6 1718.6 908 1712 908H1488C1481.4 908 1476 902.6 1476 896V892C1476 885.4 1481.4 880 1488 880Z"></path>
  <path fill="white" d="M1560 958H1712C1718.6 958 1724 963.4 1724 970V974C1724 980.6 1718.6 986 1712 986H1560C1553.4 986 1548 980.6 1548 974V970C1548 963.4 1553.4 958 1560 958Z"></path>
  <path fill="white" d="M1493 992C1502.39 992 1510 984.389 1510 975C1510 965.611 1502.39 958 1493 958C1483.61 958 1476 965.611 1476 975C1476 984.389 1483.61 992 1493 992Z"></path>
</svg>