<?xml version="1.0" standalone="no"?>
<!DOCTYPE svg PUBLIC "-//W3C//DTD SVG 20010904//EN" "http://www.w3.org/TR/2001/REC-SVG-20010904/DTD/svg10.dtd">
<svg version="1.0" xmlns="http://www.w3.org/2000/svg" width="554.000000pt" height="537.000000pt" viewBox="0 0 554.000000 537.000000" preserveAspectRatio="xMidYMid meet">

  <g transform="translate(0.000000,537.000000) scale(0.100000,-0.100000)" fill="green" stroke="none">
    <path d="M3108 4660 c-246 -29 -434 -115 -588 -270 -96 -96 -150 -181 -184
-290 -65 -205 -34 -375 90 -510 74 -79 124 -110 385 -241 340 -169 409 -224
409 -325 0 -32 -8 -45 -48 -84 -54 -52 -109 -75 -215 -90 -161 -23 -326 36
-510 183 l-36 29 -205 -179 c-114 -98 -206 -180 -206 -183 0 -12 128 -109 206
-157 198 -121 442 -181 689 -170 428 18 824 338 878 709 19 136 -20 254 -120
359 -82 86 -156 136 -375 250 -368 193 -451 266 -413 365 19 51 46 76 110 106
44 20 65 23 180 22 146 0 197 -15 287 -80 31 -23 52 -32 61 -27 38 23 417 317
417 323 0 15 -87 87 -145 121 -131 76 -267 120 -430 139 -100 11 -139 11 -237
0z" />
    <path d="M2295 4615 c-435 -28 -726 -46 -842 -52 -68 -3 -123 -10 -123 -15 0
-4 23 -8 52 -8 28 0 139 -7 247 -15 243 -18 574 -42 703 -51 l97 -7 58 53 c32
29 75 64 95 78 21 13 38 26 38 28 0 6 -112 2 -325 -11z" />
    <path d="M2225 4283 c-16 -1 -232 -16 -480 -33 -582 -39 -632 -43 -620 -47 26
-8 1111 -81 1116 -75 4 4 12 25 19 47 7 22 21 57 32 78 l18 37 -27 -2 c-16 0
-41 -3 -58 -5z" />
    <path d="M1633 3907 c-309 -23 -561 -43 -559 -45 3 -2 152 -15 333 -28 180
-13 438 -33 573 -43 135 -10 246 -18 247 -17 0 0 -1 40 -4 89 -4 55 -10 87
-17 86 -6 -1 -264 -20 -573 -42z" />
    <path d="M2130 3594 c-14 -2 -128 -11 -255 -19 -126 -9 -333 -22 -460 -31
-126 -8 -250 -19 -275 -23 -39 -6 -31 -8 65 -14 61 -4 196 -14 300 -22 105 -8
291 -21 415 -30 124 -9 302 -22 395 -29 94 -7 172 -12 173 -10 2 1 -15 13 -39
25 -60 30 -140 92 -167 129 -21 27 -27 30 -75 29 -29 -1 -63 -3 -77 -5z" />
    <path d="M2315 3245 c-99 -7 -386 -25 -637 -41 -252 -15 -456 -30 -453 -32 5
-5 129 -15 857 -68 l227 -16 98 77 c91 72 117 97 96 94 -4 -1 -89 -7 -188 -14z" />
    <path d="M1700 2890 c-217 -15 -486 -33 -597 -41 -112 -7 -203 -15 -203 -18 0
-5 565 -53 934 -80 l90 -7 98 84 c54 47 98 86 98 88 0 2 -6 3 -12 3 -7 -1
-191 -14 -408 -29z" />
    <path d="M1755 2555 c-93 -8 -312 -23 -485 -35 -173 -11 -344 -24 -380 -28
-70 -8 -30 -11 640 -48 157 -8 391 -21 520 -29 222 -12 274 -12 221 2 -36 9
-175 78 -236 117 -32 21 -67 35 -83 35 -15 -1 -103 -7 -197 -14z" />
  </g>
</svg>